<?xml version="1.0" encoding="utf-8"?>
<!-- Generator: Adobe Illustrator 19.0.0, SVG Export Plug-In . SVG Version: 6.00 Build 0)  -->
<svg version="1.1" id="Calque_1" xmlns="http://www.w3.org/2000/svg" xmlns:xlink="http://www.w3.org/1999/xlink" x="0px" y="0px"
	 viewBox="0 0 28.4 28.4" style="enable-background:new 0 0 28.4 28.4;" xml:space="preserve">
<style type="text/css">
	.st0{fill:#1DB094;stroke:#3560AA;stroke-width:0.3612;}
	.st1{fill:#075A48;}
	.st2{fill:#A93D66;}
	.st3{fill:none;}
	.st4{fill:#FFFFFF;}
	.st5{font-family:'ArialMT';}
	.st6{font-size:8.1303px;}
	.st7{fill:#1DB094;stroke:#3560AA;stroke-width:1.0661;}
	.st8{fill:#F4D8C1;}
	.st9{fill:none;stroke:#3560AA;stroke-width:1.0661;}
</style>
<rect id="XMLID_5_" x="-8.1" y="-8.3" class="st0" width="44.7" height="45"/>
<circle id="XMLID_3_" class="st1" cx="15.6" cy="15.2" r="12.3"/>
<circle id="XMLID_1_" class="st2" cx="13.2" cy="13.6" r="12.3"/>
<rect id="XMLID_19_" x="3.9" y="11.4" class="st3" width="18.6" height="8.5"/>
<text id="XMLID_4_" transform="matrix(1 0 0 1 6.7619 17.1686)" class="st4 st5 st6">NO</text>
<rect id="XMLID_85_" x="140.9" y="-163.9" class="st7" width="249.4" height="324.7"/>
<path id="XMLID_84_" class="st1" d="M361.4,148.3H209.8c-8.4,0-15.2-6.8-15.2-15.2V-99.5c0-8.4,6.8-15.2,15.2-15.2h151.6
	c8.4,0,15.2,6.8,15.2,15.2v232.5C376.6,141.6,369.8,148.3,361.4,148.3z"/>
<path id="XMLID_83_" class="st8" d="M340.5,128.1H188.8c-8.4,0-15.2-6.8-15.2-15.2v-232.5c0-8.4,6.8-15.2,15.2-15.2h151.6
	c8.4,0,15.2,6.8,15.2,15.2v232.5C355.7,121.3,348.9,128.1,340.5,128.1z"/>
<g id="XMLID_14_">
	<g id="XMLID_329_">
		<line id="XMLID_222_" class="st9" x1="188.9" y1="-115.4" x2="182.7" y2="-123.5"/>
		<line id="XMLID_226_" class="st9" x1="315.1" y1="123.6" x2="321.3" y2="113.8"/>
		<line id="XMLID_228_" class="st9" x1="243.1" y1="122.8" x2="251.1" y2="112.9"/>
		<line id="XMLID_229_" class="st9" x1="204" y1="129.8" x2="206.7" y2="114.6"/>
		<line id="XMLID_230_" class="st9" x1="210.2" y1="95.1" x2="204" y2="87.1"/>
		<line id="XMLID_231_" class="st9" x1="267.1" y1="124.4" x2="267.1" y2="113.8"/>
		<line id="XMLID_237_" class="st9" x1="256.4" y1="72" x2="266.5" y2="65.3"/>
		<line id="XMLID_240_" class="st9" x1="177.2" y1="13.6" x2="186.7" y2="20.2"/>
		<line id="XMLID_241_" class="st9" x1="184.5" y1="3.8" x2="191.8" y2="-1.2"/>
		<line id="XMLID_242_" class="st9" x1="282.1" y1="48.2" x2="291.5" y2="56.7"/>
		<line id="XMLID_244_" class="st9" x1="175.2" y1="-97.7" x2="190.1" y2="-94.5"/>
		<line id="XMLID_246_" class="st9" x1="178.1" y1="-34.5" x2="188.7" y2="-34"/>
		<line id="XMLID_249_" class="st9" x1="271.6" y1="-102.1" x2="258.2" y2="-96.8"/>
		<line id="XMLID_250_" class="st9" x1="291.1" y1="-111.9" x2="304.4" y2="-103.9"/>
		<line id="XMLID_261_" class="st9" x1="339.3" y1="-100.5" x2="346.4" y2="-90.7"/>
		<line id="XMLID_262_" class="st9" x1="199.6" y1="-103.9" x2="213.8" y2="-103"/>
		<line id="XMLID_263_" class="st9" x1="228.9" y1="-104.8" x2="237.7" y2="-96.8"/>
		<line id="XMLID_264_" class="st9" x1="193.4" y1="-55" x2="205.8" y2="-63.8"/>
		<line id="XMLID_265_" class="st9" x1="325.7" y1="-24.8" x2="319.5" y2="-33.6"/>
		<line id="XMLID_266_" class="st9" x1="307.1" y1="74.8" x2="312.4" y2="64.9"/>
		<line id="XMLID_267_" class="st9" x1="284.9" y1="-35.5" x2="287.5" y2="-48.8"/>
		<line id="XMLID_268_" class="st9" x1="251.1" y1="-18.5" x2="245.8" y2="-25.6"/>
		<line id="XMLID_269_" class="st9" x1="208.5" y1="-27.4" x2="216.4" y2="-37.2"/>
		<line id="XMLID_270_" class="st9" x1="193.4" y1="-15.8" x2="197.8" y2="-22.9"/>
		<line id="XMLID_271_" class="st9" x1="232.5" y1="-25.6" x2="232.5" y2="-36.3"/>
		<line id="XMLID_273_" class="st9" x1="340.8" y1="20.6" x2="340.8" y2="9.9"/>
		<line id="XMLID_274_" class="st9" x1="314.2" y1="9" x2="320.4" y2="-0.7"/>
		<line id="XMLID_275_" class="st9" x1="276" y1="6.4" x2="267.1" y2="3.7"/>
		<line id="XMLID_276_" class="st9" x1="242.2" y1="8.1" x2="250.2" y2="-1.6"/>
		<line id="XMLID_277_" class="st9" x1="213.8" y1="9.9" x2="218.3" y2="2.8"/>
		<line id="XMLID_278_" class="st9" x1="268.8" y1="93.2" x2="268.8" y2="82.6"/>
		<line id="XMLID_279_" class="st9" x1="274.2" y1="-51.5" x2="268" y2="-42.5"/>
		<line id="XMLID_280_" class="st9" x1="342.8" y1="-37.3" x2="342.8" y2="-26.8"/>
		<line id="XMLID_281_" class="st9" x1="303.5" y1="-78.2" x2="297.3" y2="-69.2"/>
		<line id="XMLID_282_" class="st9" x1="284.9" y1="-87.9" x2="284.9" y2="-77.2"/>
		<line id="XMLID_283_" class="st9" x1="258.2" y1="-76.4" x2="264.5" y2="-66.6"/>
		<line id="XMLID_284_" class="st9" x1="309.7" y1="37.5" x2="315.3" y2="45.9"/>
		<line id="XMLID_285_" class="st9" x1="336.5" y1="38.7" x2="330" y2="47"/>
		<line id="XMLID_286_" class="st9" x1="350.7" y1="64" x2="339.9" y2="63.2"/>
		<line id="XMLID_287_" class="st9" x1="194" y1="30.7" x2="193.5" y2="41.5"/>
		<line id="XMLID_288_" class="st9" x1="214.8" y1="34.2" x2="208.3" y2="42.7"/>
		<line id="XMLID_289_" class="st9" x1="228.9" y1="59.5" x2="218.1" y2="63.5"/>
		<line id="XMLID_290_" class="st9" x1="272.4" y1="41" x2="266.2" y2="32"/>
		<line id="XMLID_291_" class="st9" x1="245.8" y1="40" x2="249.3" y2="28.6"/>
		<line id="XMLID_292_" class="st9" x1="190.7" y1="72" x2="196.9" y2="62.2"/>
		<line id="XMLID_293_" class="st9" x1="281.3" y1="98.8" x2="287.5" y2="88.9"/>
		<line id="XMLID_294_" class="st9" x1="242.2" y1="90.8" x2="236.9" y2="83.6"/>
		<line id="XMLID_295_" class="st9" x1="321.9" y1="-61" x2="321.5" y2="-50"/>
		<line id="XMLID_296_" class="st9" x1="342.7" y1="-57.3" x2="336.3" y2="-48.8"/>
		<line id="XMLID_297_" class="st9" x1="325.7" y1="74.8" x2="323.8" y2="84.3"/>
		<line id="XMLID_298_" class="st9" x1="228.9" y1="-77.2" x2="217.3" y2="-75.4"/>
		<line id="XMLID_299_" class="st9" x1="236" y1="-70.2" x2="238.7" y2="-57.6"/>
		<line id="XMLID_301_" class="st9" x1="307.9" y1="-11.5" x2="295.5" y2="-9.7"/>
		<line id="XMLID_302_" class="st9" x1="345.3" y1="98.8" x2="349.7" y2="89.8"/>
		<line id="XMLID_304_" class="st9" x1="322.2" y1="-113.7" x2="315.9" y2="-122.6"/>
		<line id="XMLID_305_" class="st9" x1="341.7" y1="-74.6" x2="336.4" y2="-81.7"/>
		<line id="XMLID_307_" class="st9" x1="302.4" y1="98.8" x2="311.9" y2="105.4"/>
		<line id="XMLID_308_" class="st9" x1="333.6" y1="-10.4" x2="343.5" y2="-7.8"/>
		<line id="XMLID_309_" class="st9" x1="218" y1="-58.3" x2="228" y2="-55.8"/>
		<line id="XMLID_310_" class="st9" x1="275.1" y1="-17.6" x2="269.7" y2="-24.8"/>
		<line id="XMLID_313_" class="st9" x1="341.7" y1="-120.8" x2="341.7" y2="-131.4"/>
		<line id="XMLID_314_" class="st9" x1="285.8" y1="-124.2" x2="280.4" y2="-131.4"/>
		<line id="XMLID_323_" class="st9" x1="242.2" y1="-111.9" x2="244.9" y2="-125.2"/>
		<line id="XMLID_324_" class="st9" x1="223.2" y1="112.4" x2="233.3" y2="105.6"/>
		<line id="XMLID_325_" class="st9" x1="299" y1="-45.2" x2="309" y2="-42.8"/>
		<line id="XMLID_326_" class="st9" x1="295.5" y1="28.6" x2="290.2" y2="21.5"/>
	</g>
</g>
<g id="XMLID_334_">
	<path id="XMLID_330_" class="st2" d="M308.7-23h-7.3h-86.2c-3.7,0-6.7,3-6.7,6.7v38c0,27.5,22.3,49.9,49.9,49.9
		c22.9,0,42.2-15.5,48-36.6h2.4c16,0,29.1-13,29.1-29.1C337.8-10,324.8-23,308.7-23z M294.7,21.8c0,20.1-16.4,36.4-36.4,36.4
		s-36.4-16.4-36.4-36.4V-9.5h72.7L294.7,21.8L294.7,21.8z M308.7,21.6h-0.6V-9.6h0.6c8.6,0,15.6,7,15.6,15.6S317.3,21.6,308.7,21.6z
		"/>
	<path id="XMLID_331_" class="st2" d="M219.3-37h13.5c0-1.9,0.4-2.4,1.3-3.9c1.3-2.1,3.2-5.3,3.2-10.9s-1.9-8.8-3.2-10.9
		c-1-1.6-1.3-2.1-1.3-3.9c0-1.9,0.4-2.4,1.3-3.9c1.3-2.1,3.2-5.3,3.2-10.9h-13.5c0,1.9-0.4,2.4-1.3,3.9c-1.3,2.1-3.2,5.3-3.2,10.9
		s1.9,8.8,3.2,11c1,1.6,1.3,2.1,1.3,3.9c0,1.9-0.4,2.4-1.3,3.9C221.3-45.8,219.3-42.5,219.3-37z"/>
	<path id="XMLID_332_" class="st2" d="M249.3-37h13.5c0-1.9,0.4-2.4,1.3-3.9c1.3-2.1,3.3-5.3,3.3-10.9s-1.9-8.8-3.2-10.9
		c-1-1.6-1.3-2.1-1.3-3.9c0-1.9,0.4-2.4,1.3-3.9c1.3-2.1,3.2-5.3,3.2-10.9h-13.5c0,1.9-0.4,2.4-1.3,3.9c-1.3,2.1-3.2,5.3-3.2,10.9
		s1.9,8.8,3.2,11c1,1.6,1.3,2.1,1.3,3.9c0,1.9-0.4,2.4-1.3,3.9C251.3-45.8,249.3-42.5,249.3-37z"/>
	<path id="XMLID_333_" class="st2" d="M279.3-37h13.5c0-1.9,0.4-2.4,1.3-3.9c1.3-2.1,3.3-5.3,3.3-10.9s-1.9-8.8-3.2-10.9
		c-1-1.6-1.3-2.1-1.3-3.9c0-1.9,0.4-2.4,1.3-3.9c1.3-2.1,3.2-5.3,3.2-10.9h-13.5c0,1.9-0.4,2.4-1.3,3.9c-1.3,2.1-3.2,5.3-3.2,10.9
		s1.9,8.8,3.2,11c1,1.6,1.3,2.1,1.3,3.9c0,1.9-0.4,2.4-1.3,3.9C281.3-45.8,279.3-42.5,279.3-37z"/>
</g>
</svg>
