<?xml version="1.0" encoding="utf-8"?>
<!-- Generator: Adobe Illustrator 19.0.0, SVG Export Plug-In . SVG Version: 6.00 Build 0)  -->
<svg version="1.1" id="Calque_1" xmlns="http://www.w3.org/2000/svg" xmlns:xlink="http://www.w3.org/1999/xlink" x="0px" y="0px"
	 viewBox="0 0 238.1 317.5" style="enable-background:new 0 0 238.1 317.5;" xml:space="preserve">
<style type="text/css">
	.st0{fill:#01B295;stroke:#335FA9;stroke-width:1.0661;}
	.st1{fill:#025948;}
	.st2{fill:#F4D8C1;}
	.st3{fill:none;stroke:#335FA9;stroke-width:0.221;}
	.st4{fill:none;stroke:#335FA9;stroke-width:1.0661;}
	.st5{fill:#A73C65;}
</style>
<rect x="-4.7" y="-1.9" class="st0" width="249.4" height="324.7"/>
<path class="st1" d="M215.8,310.4H64.2c-8.4,0-15.2-6.8-15.2-15.2V62.6c0-8.4,6.8-15.2,15.2-15.2h151.6c8.4,0,15.2,6.8,15.2,15.2
	v232.5C231,303.6,224.2,310.4,215.8,310.4z"/>
<path class="st2" d="M194.9,290.2H43.2c-8.4,0-15.2-6.8-15.2-15.2V42.5c0-8.4,6.8-15.2,15.2-15.2h151.6c8.4,0,15.2,6.8,15.2,15.2
	V275C210.1,283.4,203.3,290.2,194.9,290.2z"/>
<g id="XMLID_995_">
	<line id="XMLID_1103_" class="st3" x1="653.1" y1="-315.6" x2="651.1" y2="-314.1"/>
	<line id="XMLID_1102_" class="st3" x1="652" y1="-274.2" x2="650.4" y2="-272.9"/>
	<line id="XMLID_1101_" class="st3" x1="702.9" y1="-318.4" x2="700.5" y2="-317.8"/>
	<line id="XMLID_1100_" class="st3" x1="701.9" y1="-309.7" x2="700.1" y2="-308.4"/>
	<line id="XMLID_1099_" class="st3" x1="704" y1="-305.9" x2="701.8" y2="-305.9"/>
	<line id="XMLID_1098_" class="st3" x1="701.6" y1="-300.3" x2="699.5" y2="-301.6"/>
	<line id="XMLID_1097_" class="st3" x1="703.2" y1="-294.3" x2="701.8" y2="-293.2"/>
	<line id="XMLID_1096_" class="st3" x1="701.4" y1="-285.4" x2="699.4" y2="-287.1"/>
	<line id="XMLID_1095_" class="st3" x1="702.9" y1="-277.3" x2="699.7" y2="-277.9"/>
	<line id="XMLID_1094_" class="st3" x1="695.7" y1="-278.6" x2="694" y2="-277.3"/>
	<line id="XMLID_1093_" class="st3" x1="701.8" y1="-290.4" x2="699.5" y2="-290.4"/>
	<line id="XMLID_1092_" class="st3" x1="691.6" y1="-310.6" x2="690.2" y2="-312.7"/>
	<line id="XMLID_1091_" class="st3" x1="669.5" y1="-311.8" x2="668.3" y2="-313.6"/>
	<line id="XMLID_1090_" class="st3" x1="680.6" y1="-315" x2="682" y2="-317"/>
	<line id="XMLID_1089_" class="st3" x1="699" y1="-269.9" x2="699.8" y2="-272.1"/>
	<line id="XMLID_1088_" class="st3" x1="695.4" y1="-269.8" x2="694.9" y2="-272.2"/>
	<line id="XMLID_1087_" class="st3" x1="690.9" y1="-288.2" x2="689.5" y2="-290.3"/>
	<line id="XMLID_1086_" class="st3" x1="684.7" y1="-309.1" x2="683.5" y2="-311"/>
	<line id="XMLID_1085_" class="st3" x1="684.2" y1="-269.1" x2="684.3" y2="-271.4"/>
	<line id="XMLID_1084_" class="st3" x1="678.8" y1="-271.7" x2="680.1" y2="-273.7"/>
	<line id="XMLID_1083_" class="st3" x1="672.6" y1="-270.3" x2="671.6" y2="-271.8"/>
	<line id="XMLID_1082_" class="st3" x1="686" y1="-293.5" x2="687.7" y2="-295.5"/>
	<line id="XMLID_1081_" class="st3" x1="660.6" y1="-270.2" x2="661.6" y2="-271.7"/>
	<line id="XMLID_1080_" class="st3" x1="655.7" y1="-271.3" x2="656.4" y2="-274.4"/>
	<line id="XMLID_1079_" class="st3" x1="652.5" y1="-269.2" x2="651.3" y2="-270.9"/>
	<line id="XMLID_1078_" class="st3" x1="668.8" y1="-271.9" x2="668.9" y2="-274.2"/>
	<line id="XMLID_1077_" class="st3" x1="654.2" y1="-319.7" x2="656.8" y2="-318.6"/>
	<line id="XMLID_1076_" class="st3" x1="652.2" y1="-308.3" x2="652.4" y2="-310.6"/>
	<line id="XMLID_1075_" class="st3" x1="654.8" y1="-291.3" x2="655.9" y2="-288.5"/>
	<line id="XMLID_1074_" class="st3" x1="652.8" y1="-295.4" x2="654.4" y2="-298.1"/>
	<line id="XMLID_1073_" class="st3" x1="670.4" y1="-320.2" x2="668.8" y2="-318.4"/>
	<line id="XMLID_1072_" class="st3" x1="673.6" y1="-320.2" x2="676" y2="-318.2"/>
	<line id="XMLID_1071_" class="st3" x1="685.9" y1="-320.2" x2="688.3" y2="-318.8"/>
	<line id="XMLID_1070_" class="st3" x1="687.6" y1="-315.8" x2="686.1" y2="-313.4"/>
	<line id="XMLID_1069_" class="st3" x1="692.7" y1="-316.7" x2="696.4" y2="-318.4"/>
	<line id="XMLID_1068_" class="st3" x1="698.3" y1="-314.1" x2="696.4" y2="-312.9"/>
	<line id="XMLID_1067_" class="st3" x1="662.7" y1="-320" x2="662.7" y2="-317.8"/>
	<line id="XMLID_1066_" class="st3" x1="660.5" y1="-316.4" x2="658.1" y2="-316"/>
	<line id="XMLID_1065_" class="st3" x1="663.6" y1="-313" x2="664" y2="-310.6"/>
	<line id="XMLID_1064_" class="st3" x1="664.4" y1="-316.4" x2="666.9" y2="-316.9"/>
	<line id="XMLID_1063_" class="st3" x1="655.7" y1="-307.7" x2="657.7" y2="-309.2"/>
	<line id="XMLID_1062_" class="st3" x1="654.4" y1="-276.4" x2="654.6" y2="-279.3"/>
	<line id="XMLID_1061_" class="st3" x1="654.2" y1="-282.5" x2="655.9" y2="-284.3"/>
	<line id="XMLID_1060_" class="st3" x1="664.6" y1="-275.1" x2="662.7" y2="-277.7"/>
	<line id="XMLID_1059_" class="st3" x1="670.8" y1="-302.5" x2="669" y2="-301.3"/>
	<line id="XMLID_1058_" class="st3" x1="691.4" y1="-298.7" x2="689.4" y2="-299.8"/>
	<line id="XMLID_1057_" class="st3" x1="668.6" y1="-294.1" x2="665.8" y2="-294.6"/>
	<line id="XMLID_1056_" class="st3" x1="672.1" y1="-287.1" x2="670.6" y2="-286"/>
	<line id="XMLID_1055_" class="st3" x1="670.3" y1="-278.2" x2="668.2" y2="-279.9"/>
	<line id="XMLID_1054_" class="st3" x1="672.7" y1="-275.1" x2="671.2" y2="-276"/>
	<line id="XMLID_1053_" class="st3" x1="670.6" y1="-283.2" x2="668.4" y2="-283.2"/>
	<line id="XMLID_1052_" class="st3" x1="678.2" y1="-309.5" x2="676.3" y2="-308.3"/>
	<line id="XMLID_1051_" class="st3" x1="680.2" y1="-305.7" x2="678" y2="-305.7"/>
	<line id="XMLID_1050_" class="st3" x1="677.8" y1="-300.2" x2="675.8" y2="-301.4"/>
	<line id="XMLID_1049_" class="st3" x1="677.3" y1="-292.2" x2="676.7" y2="-290.4"/>
	<line id="XMLID_1048_" class="st3" x1="677.6" y1="-285.2" x2="675.6" y2="-286.9"/>
	<line id="XMLID_1047_" class="st3" x1="678" y1="-279.3" x2="676.5" y2="-280.3"/>
	<line id="XMLID_1046_" class="st3" x1="695.3" y1="-290.7" x2="693.1" y2="-290.7"/>
	<line id="XMLID_1045_" class="st3" x1="665.3" y1="-291.9" x2="667.1" y2="-290.6"/>
	<line id="XMLID_1044_" class="st3" x1="668.8" y1="-308.4" x2="671" y2="-308.4"/>
	<line id="XMLID_1043_" class="st3" x1="659.8" y1="-297.9" x2="661.6" y2="-296.7"/>
	<line id="XMLID_1042_" class="st3" x1="657.7" y1="-294.1" x2="659.9" y2="-294.1"/>
	<line id="XMLID_1041_" class="st3" x1="660.1" y1="-288.5" x2="662.2" y2="-289.8"/>
	<line id="XMLID_1040_" class="st3" x1="683.7" y1="-299.2" x2="685.5" y2="-300.4"/>
	<line id="XMLID_1039_" class="st3" x1="684" y1="-304.8" x2="685.7" y2="-303.4"/>
	<line id="XMLID_1038_" class="st3" x1="689.2" y1="-307.7" x2="689" y2="-305.5"/>
	<line id="XMLID_1037_" class="st3" x1="682.3" y1="-275.2" x2="684.5" y2="-275.2"/>
	<line id="XMLID_1036_" class="st3" x1="683" y1="-279.5" x2="684.8" y2="-278.2"/>
	<line id="XMLID_1035_" class="st3" x1="688.3" y1="-282.5" x2="689.1" y2="-280.2"/>
	<line id="XMLID_1034_" class="st3" x1="684.4" y1="-291.5" x2="682.6" y2="-290.2"/>
	<line id="XMLID_1033_" class="st3" x1="684.3" y1="-286" x2="681.9" y2="-286.7"/>
	<line id="XMLID_1032_" class="st3" x1="690.9" y1="-274.6" x2="688.9" y2="-275.8"/>
	<line id="XMLID_1031_" class="st3" x1="696.4" y1="-293.3" x2="694.4" y2="-294.6"/>
	<line id="XMLID_1030_" class="st3" x1="694.8" y1="-285.2" x2="693.3" y2="-284.1"/>
	<line id="XMLID_1029_" class="st3" x1="663.3" y1="-301.8" x2="665.6" y2="-301.7"/>
	<line id="XMLID_1028_" class="st3" x1="664.1" y1="-306.1" x2="665.8" y2="-304.7"/>
	<line id="XMLID_1027_" class="st3" x1="691.4" y1="-302.5" x2="693.4" y2="-302.1"/>
	<line id="XMLID_1026_" class="st3" x1="659.9" y1="-282.5" x2="660.3" y2="-280.1"/>
	<line id="XMLID_1025_" class="st3" x1="661.4" y1="-283.9" x2="664" y2="-284.5"/>
	<line id="XMLID_1024_" class="st3" x1="673" y1="-314.1" x2="676" y2="-313.6"/>
	<line id="XMLID_1023_" class="st3" x1="673.6" y1="-298.8" x2="673.9" y2="-296.3"/>
	<line id="XMLID_1022_" class="st3" x1="696.4" y1="-306.6" x2="694.6" y2="-307.5"/>
	<line id="XMLID_1021_" class="st3" x1="656.3" y1="-313.6" x2="658.7" y2="-311.6"/>
	<line id="XMLID_1020_" class="st3" x1="652.4" y1="-301.8" x2="650.6" y2="-300.5"/>
	<line id="XMLID_1019_" class="st3" x1="660.5" y1="-305.9" x2="659" y2="-304.8"/>
	<line id="XMLID_1018_" class="st3" x1="679.3" y1="-320" x2="680.7" y2="-322"/>
	<line id="XMLID_1017_" class="st3" x1="696.4" y1="-297.7" x2="697.8" y2="-299.7"/>
	<line id="XMLID_1016_" class="st3" x1="673.8" y1="-304.2" x2="674.3" y2="-306.2"/>
	<line id="XMLID_1015_" class="st3" x1="663.8" y1="-280.2" x2="664.4" y2="-282.3"/>
	<line id="XMLID_1014_" class="st3" x1="672.3" y1="-292" x2="670.8" y2="-290.9"/>
	<line id="XMLID_1013_" class="st3" x1="649.8" y1="-318.4" x2="647.4" y2="-317.8"/>
	<line id="XMLID_1012_" class="st3" x1="648.9" y1="-309.7" x2="647.1" y2="-308.4"/>
	<line id="XMLID_1011_" class="st3" x1="650.9" y1="-305.9" x2="648.7" y2="-305.9"/>
	<line id="XMLID_1010_" class="st3" x1="650.2" y1="-294.3" x2="648.7" y2="-293.2"/>
	<line id="XMLID_1009_" class="st3" x1="649.8" y1="-277.3" x2="646.7" y2="-277.9"/>
	<line id="XMLID_1008_" class="st3" x1="648.7" y1="-290.4" x2="646.5" y2="-290.4"/>
	<line id="XMLID_1007_" class="st3" x1="699" y1="-322.9" x2="699.8" y2="-325.1"/>
	<line id="XMLID_1006_" class="st3" x1="695.4" y1="-322.8" x2="694.9" y2="-325.2"/>
	<line id="XMLID_1005_" class="st3" x1="684.2" y1="-322.2" x2="684.3" y2="-324.4"/>
	<line id="XMLID_1004_" class="st3" x1="672.6" y1="-323.4" x2="671.6" y2="-324.9"/>
	<line id="XMLID_1003_" class="st3" x1="660.6" y1="-323.3" x2="661.6" y2="-324.7"/>
	<line id="XMLID_1002_" class="st3" x1="652.5" y1="-322.3" x2="651.3" y2="-324"/>
	<line id="XMLID_1001_" class="st3" x1="652.8" y1="-285.2" x2="650" y2="-285.8"/>
	<line id="XMLID_1000_" class="st3" x1="699.3" y1="-281.3" x2="697.9" y2="-283.4"/>
	<line id="XMLID_999_" class="st3" x1="666.6" y1="-297" x2="667.1" y2="-299.1"/>
	<line id="XMLID_998_" class="st3" x1="681.9" y1="-296.3" x2="680.4" y2="-295.2"/>
	<line id="XMLID_997_" class="st3" x1="689.8" y1="-322.1" x2="691.2" y2="-324.3"/>
	<line id="XMLID_996_" class="st3" x1="689.8" y1="-269" x2="691.2" y2="-271.2"/>
</g>
<g>
	<g id="XMLID_329_">
		<line id="XMLID_222_" class="st4" x1="43.3" y1="46.7" x2="37.1" y2="38.6"/>
		<line id="XMLID_226_" class="st4" x1="169.5" y1="285.7" x2="175.7" y2="275.8"/>
		<line id="XMLID_228_" class="st4" x1="97.5" y1="284.8" x2="105.5" y2="275"/>
		<line id="XMLID_229_" class="st4" x1="58.4" y1="291.9" x2="61.1" y2="276.7"/>
		<line id="XMLID_230_" class="st4" x1="64.6" y1="257.2" x2="58.4" y2="249.2"/>
		<line id="XMLID_231_" class="st4" x1="121.5" y1="286.5" x2="121.5" y2="275.8"/>
		<line id="XMLID_237_" class="st4" x1="110.8" y1="234.1" x2="120.9" y2="227.4"/>
		<line id="XMLID_240_" class="st4" x1="31.6" y1="175.6" x2="41.1" y2="182.2"/>
		<line id="XMLID_241_" class="st4" x1="38.9" y1="165.8" x2="46.2" y2="160.8"/>
		<line id="XMLID_242_" class="st4" x1="136.5" y1="210.3" x2="145.9" y2="218.7"/>
		<line id="XMLID_244_" class="st4" x1="29.6" y1="64.4" x2="44.5" y2="67.6"/>
		<line id="XMLID_246_" class="st4" x1="32.5" y1="127.6" x2="43.1" y2="128"/>
		<line id="XMLID_249_" class="st4" x1="126" y1="60" x2="112.6" y2="65.3"/>
		<line id="XMLID_250_" class="st4" x1="145.5" y1="50.2" x2="158.8" y2="58.2"/>
		<line id="XMLID_261_" class="st4" x1="193.7" y1="61.6" x2="200.8" y2="71.4"/>
		<line id="XMLID_262_" class="st4" x1="54" y1="58.2" x2="68.2" y2="59.1"/>
		<line id="XMLID_263_" class="st4" x1="83.3" y1="57.3" x2="92.1" y2="65.3"/>
		<line id="XMLID_264_" class="st4" x1="47.8" y1="107.1" x2="60.2" y2="98.2"/>
		<line id="XMLID_265_" class="st4" x1="180.1" y1="137.3" x2="173.9" y2="128.4"/>
		<line id="XMLID_266_" class="st4" x1="161.5" y1="236.8" x2="166.8" y2="227"/>
		<line id="XMLID_267_" class="st4" x1="139.3" y1="126.6" x2="141.9" y2="113.3"/>
		<line id="XMLID_268_" class="st4" x1="105.5" y1="143.5" x2="100.2" y2="136.4"/>
		<line id="XMLID_269_" class="st4" x1="62.9" y1="134.6" x2="70.8" y2="124.8"/>
		<line id="XMLID_270_" class="st4" x1="47.8" y1="146.2" x2="52.2" y2="139.1"/>
		<line id="XMLID_271_" class="st4" x1="86.9" y1="136.4" x2="86.9" y2="125.7"/>
		<line id="XMLID_273_" class="st4" x1="195.2" y1="182.6" x2="195.2" y2="171.9"/>
		<line id="XMLID_274_" class="st4" x1="168.6" y1="171" x2="174.8" y2="161.3"/>
		<line id="XMLID_275_" class="st4" x1="130.4" y1="168.4" x2="121.5" y2="165.7"/>
		<line id="XMLID_276_" class="st4" x1="96.6" y1="170.1" x2="104.6" y2="160.4"/>
		<line id="XMLID_277_" class="st4" x1="68.2" y1="171.9" x2="72.7" y2="164.8"/>
		<line id="XMLID_278_" class="st4" x1="123.2" y1="255.3" x2="123.2" y2="244.7"/>
		<line id="XMLID_279_" class="st4" x1="128.6" y1="110.6" x2="122.4" y2="119.5"/>
		<line id="XMLID_280_" class="st4" x1="197.2" y1="124.7" x2="197.2" y2="135.3"/>
		<line id="XMLID_281_" class="st4" x1="157.9" y1="83.9" x2="151.7" y2="92.9"/>
		<line id="XMLID_282_" class="st4" x1="139.3" y1="74.2" x2="139.3" y2="84.8"/>
		<line id="XMLID_283_" class="st4" x1="112.6" y1="85.7" x2="118.9" y2="95.5"/>
		<line id="XMLID_284_" class="st4" x1="164.1" y1="199.5" x2="169.7" y2="207.9"/>
		<line id="XMLID_285_" class="st4" x1="190.9" y1="200.7" x2="184.4" y2="209.1"/>
		<line id="XMLID_286_" class="st4" x1="205.1" y1="226" x2="194.3" y2="225.2"/>
		<line id="XMLID_287_" class="st4" x1="48.4" y1="192.7" x2="47.9" y2="203.5"/>
		<line id="XMLID_288_" class="st4" x1="69.2" y1="196.2" x2="62.7" y2="204.7"/>
		<line id="XMLID_289_" class="st4" x1="83.3" y1="221.5" x2="72.5" y2="225.5"/>
		<line id="XMLID_290_" class="st4" x1="126.8" y1="203" x2="120.6" y2="194.1"/>
		<line id="XMLID_291_" class="st4" x1="100.2" y1="202.1" x2="103.7" y2="190.6"/>
		<line id="XMLID_292_" class="st4" x1="45.1" y1="234.1" x2="51.3" y2="224.3"/>
		<line id="XMLID_293_" class="st4" x1="135.7" y1="260.8" x2="141.9" y2="251"/>
		<line id="XMLID_294_" class="st4" x1="96.6" y1="252.8" x2="91.3" y2="245.7"/>
		<line id="XMLID_295_" class="st4" x1="176.3" y1="101.1" x2="175.9" y2="112"/>
		<line id="XMLID_296_" class="st4" x1="197.1" y1="104.7" x2="190.7" y2="113.2"/>
		<line id="XMLID_297_" class="st4" x1="180.1" y1="236.8" x2="178.2" y2="246.4"/>
		<line id="XMLID_298_" class="st4" x1="83.3" y1="84.8" x2="71.7" y2="86.7"/>
		<line id="XMLID_299_" class="st4" x1="90.4" y1="91.9" x2="93.1" y2="104.4"/>
		<line id="XMLID_301_" class="st4" x1="162.3" y1="150.5" x2="149.9" y2="152.3"/>
		<line id="XMLID_302_" class="st4" x1="199.7" y1="260.8" x2="204.1" y2="251.9"/>
		<line id="XMLID_304_" class="st4" x1="176.6" y1="48.4" x2="170.3" y2="39.5"/>
		<line id="XMLID_305_" class="st4" x1="196.1" y1="87.5" x2="190.8" y2="80.4"/>
		<line id="XMLID_307_" class="st4" x1="156.8" y1="260.9" x2="166.3" y2="267.5"/>
		<line id="XMLID_308_" class="st4" x1="188" y1="151.6" x2="197.9" y2="154.2"/>
		<line id="XMLID_309_" class="st4" x1="72.4" y1="103.7" x2="82.4" y2="106.2"/>
		<line id="XMLID_310_" class="st4" x1="129.5" y1="144.4" x2="124.1" y2="137.3"/>
		<line id="XMLID_313_" class="st4" x1="196.1" y1="41.3" x2="196.1" y2="30.6"/>
		<line id="XMLID_314_" class="st4" x1="140.2" y1="37.8" x2="134.8" y2="30.6"/>
		<line id="XMLID_323_" class="st4" x1="96.6" y1="50.2" x2="99.3" y2="36.9"/>
		<line id="XMLID_324_" class="st4" x1="77.6" y1="274.5" x2="87.7" y2="267.7"/>
		<line id="XMLID_325_" class="st4" x1="153.4" y1="116.8" x2="163.4" y2="119.2"/>
		<line id="XMLID_326_" class="st4" x1="149.9" y1="190.6" x2="144.6" y2="183.5"/>
	</g>
</g>
<g id="XMLID_334_">
	<path id="XMLID_330_" class="st5" d="M163.1,139h-7.3H69.6c-3.7,0-6.7,3-6.7,6.7v38c0,27.5,22.3,49.9,49.9,49.9
		c22.9,0,42.2-15.5,48-36.6h2.4c16,0,29.1-13,29.1-29.1C192.2,152,179.2,139,163.1,139z M149.1,183.8c0,20.1-16.4,36.4-36.4,36.4
		s-36.4-16.4-36.4-36.4v-31.3h72.7L149.1,183.8L149.1,183.8z M163.1,183.6h-0.6v-31.2h0.6c8.6,0,15.6,7,15.6,15.6
		S171.7,183.6,163.1,183.6z"/>
	<path id="XMLID_331_" class="st5" d="M73.7,125.1h13.5c0-1.9,0.4-2.4,1.3-3.9c1.3-2.1,3.2-5.3,3.2-10.9c0-5.6-1.9-8.8-3.2-10.9
		c-1-1.6-1.3-2.1-1.3-3.9c0-1.9,0.4-2.4,1.3-3.9c1.3-2.1,3.2-5.3,3.2-10.9H78.2c0,1.9-0.4,2.4-1.3,3.9c-1.3,2.1-3.2,5.3-3.2,10.9
		c0,5.6,1.9,8.8,3.2,11c1,1.6,1.3,2.1,1.3,3.9c0,1.9-0.4,2.4-1.3,3.9C75.7,116.3,73.7,119.5,73.7,125.1z"/>
	<path id="XMLID_332_" class="st5" d="M103.7,125.1h13.5c0-1.9,0.4-2.4,1.3-3.9c1.3-2.1,3.3-5.3,3.3-10.9c0-5.6-1.9-8.8-3.2-10.9
		c-1-1.6-1.3-2.1-1.3-3.9c0-1.9,0.4-2.4,1.3-3.9c1.3-2.1,3.2-5.3,3.2-10.9h-13.5c0,1.9-0.4,2.4-1.3,3.9c-1.3,2.1-3.2,5.3-3.2,10.9
		c0,5.6,1.9,8.8,3.2,11c1,1.6,1.3,2.1,1.3,3.9c0,1.9-0.4,2.4-1.3,3.9C105.7,116.3,103.7,119.5,103.7,125.1z"/>
	<path id="XMLID_333_" class="st5" d="M133.7,125.1h13.5c0-1.9,0.4-2.4,1.3-3.9c1.3-2.1,3.3-5.3,3.3-10.9c0-5.6-1.9-8.8-3.2-10.9
		c-1-1.6-1.3-2.1-1.3-3.9c0-1.9,0.4-2.4,1.3-3.9c1.3-2.1,3.2-5.3,3.2-10.9h-13.5c0,1.9-0.4,2.4-1.3,3.9c-1.3,2.1-3.2,5.3-3.2,10.9
		c0,5.6,1.9,8.8,3.2,11c1,1.6,1.3,2.1,1.3,3.9c0,1.9-0.4,2.4-1.3,3.9C135.7,116.3,133.7,119.5,133.7,125.1z"/>
</g>
</svg>
