<?xml version="1.0" encoding="utf-8"?>
<!-- Generator: Adobe Illustrator 19.0.0, SVG Export Plug-In . SVG Version: 6.00 Build 0)  -->
<svg version="1.1" id="Calque_1" xmlns="http://www.w3.org/2000/svg" xmlns:xlink="http://www.w3.org/1999/xlink" x="0px" y="0px"
	 viewBox="-227 508.5 238.1 317.5" style="enable-background:new -227 508.5 238.1 317.5;" xml:space="preserve">
<style type="text/css">
	.st0{fill:#01B295;stroke:#335FA9;stroke-width:1.0661;}
	.st1{fill:#025948;}
	.st2{fill:#F4D8C1;}
	.st3{fill:none;stroke:#335FA9;stroke-width:0.221;}
	.st4{fill:none;stroke:#335FA9;stroke-width:1.0661;}
	.st5{fill:#A73C65;}
	.st6{fill:none;stroke:#A83C65;stroke-width:7;stroke-linecap:round;stroke-miterlimit:10;}
</style>
<rect x="-231.7" y="506.6" class="st0" width="249.4" height="324.7"/>
<path class="st1" d="M-11.2,818.9h-151.6c-8.4,0-15.2-6.8-15.2-15.2V571.1c0-8.4,6.8-15.2,15.2-15.2h151.6c8.4,0,15.2,6.8,15.2,15.2
	v232.5C4,812.1-2.8,818.9-11.2,818.9z"/>
<path class="st2" d="M-32.1,798.7h-151.7c-8.4,0-15.2-6.8-15.2-15.2V551c0-8.4,6.8-15.2,15.2-15.2h151.6c8.4,0,15.2,6.8,15.2,15.2
	v232.5C-16.9,791.9-23.7,798.7-32.1,798.7z"/>
<g id="XMLID_995_">
	<line id="XMLID_1103_" class="st3" x1="426.1" y1="192.9" x2="424.1" y2="194.4"/>
	<line id="XMLID_1102_" class="st3" x1="425" y1="234.3" x2="423.4" y2="235.6"/>
	<line id="XMLID_1101_" class="st3" x1="475.9" y1="190.1" x2="473.5" y2="190.7"/>
	<line id="XMLID_1100_" class="st3" x1="474.9" y1="198.8" x2="473.1" y2="200.1"/>
	<line id="XMLID_1099_" class="st3" x1="477" y1="202.6" x2="474.8" y2="202.6"/>
	<line id="XMLID_1098_" class="st3" x1="474.6" y1="208.2" x2="472.5" y2="206.9"/>
	<line id="XMLID_1097_" class="st3" x1="476.2" y1="214.2" x2="474.8" y2="215.3"/>
	<line id="XMLID_1096_" class="st3" x1="474.4" y1="223.1" x2="472.4" y2="221.4"/>
	<line id="XMLID_1095_" class="st3" x1="475.9" y1="231.2" x2="472.7" y2="230.6"/>
	<line id="XMLID_1094_" class="st3" x1="468.7" y1="229.9" x2="467" y2="231.2"/>
	<line id="XMLID_1093_" class="st3" x1="474.8" y1="218.1" x2="472.5" y2="218.1"/>
	<line id="XMLID_1092_" class="st3" x1="464.6" y1="197.9" x2="463.2" y2="195.8"/>
	<line id="XMLID_1091_" class="st3" x1="442.5" y1="196.7" x2="441.3" y2="194.9"/>
	<line id="XMLID_1090_" class="st3" x1="453.6" y1="193.5" x2="455" y2="191.5"/>
	<line id="XMLID_1089_" class="st3" x1="472" y1="238.6" x2="472.8" y2="236.4"/>
	<line id="XMLID_1088_" class="st3" x1="468.4" y1="238.7" x2="467.9" y2="236.3"/>
	<line id="XMLID_1087_" class="st3" x1="463.9" y1="220.3" x2="462.5" y2="218.2"/>
	<line id="XMLID_1086_" class="st3" x1="457.7" y1="199.4" x2="456.5" y2="197.5"/>
	<line id="XMLID_1085_" class="st3" x1="457.2" y1="239.4" x2="457.3" y2="237.1"/>
	<line id="XMLID_1084_" class="st3" x1="451.8" y1="236.8" x2="453.1" y2="234.8"/>
	<line id="XMLID_1083_" class="st3" x1="445.6" y1="238.2" x2="444.6" y2="236.7"/>
	<line id="XMLID_1082_" class="st3" x1="459" y1="215" x2="460.7" y2="213"/>
	<line id="XMLID_1081_" class="st3" x1="433.6" y1="238.3" x2="434.6" y2="236.8"/>
	<line id="XMLID_1080_" class="st3" x1="428.7" y1="237.2" x2="429.4" y2="234.1"/>
	<line id="XMLID_1079_" class="st3" x1="425.5" y1="239.3" x2="424.3" y2="237.6"/>
	<line id="XMLID_1078_" class="st3" x1="441.8" y1="236.6" x2="441.9" y2="234.3"/>
	<line id="XMLID_1077_" class="st3" x1="427.2" y1="188.8" x2="429.8" y2="189.9"/>
	<line id="XMLID_1076_" class="st3" x1="425.2" y1="200.2" x2="425.4" y2="197.9"/>
	<line id="XMLID_1075_" class="st3" x1="427.8" y1="217.2" x2="428.9" y2="220"/>
	<line id="XMLID_1074_" class="st3" x1="425.8" y1="213.1" x2="427.4" y2="210.4"/>
	<line id="XMLID_1073_" class="st3" x1="443.4" y1="188.3" x2="441.8" y2="190.1"/>
	<line id="XMLID_1072_" class="st3" x1="446.6" y1="188.3" x2="449" y2="190.3"/>
	<line id="XMLID_1071_" class="st3" x1="458.9" y1="188.3" x2="461.3" y2="189.7"/>
	<line id="XMLID_1070_" class="st3" x1="460.6" y1="192.7" x2="459.1" y2="195.1"/>
	<line id="XMLID_1069_" class="st3" x1="465.7" y1="191.8" x2="469.4" y2="190.1"/>
	<line id="XMLID_1068_" class="st3" x1="471.3" y1="194.4" x2="469.4" y2="195.6"/>
	<line id="XMLID_1067_" class="st3" x1="435.7" y1="188.5" x2="435.7" y2="190.7"/>
	<line id="XMLID_1066_" class="st3" x1="433.5" y1="192.1" x2="431.1" y2="192.5"/>
	<line id="XMLID_1065_" class="st3" x1="436.6" y1="195.5" x2="437" y2="197.9"/>
	<line id="XMLID_1064_" class="st3" x1="437.4" y1="192.1" x2="439.9" y2="191.6"/>
	<line id="XMLID_1063_" class="st3" x1="428.7" y1="200.8" x2="430.7" y2="199.3"/>
	<line id="XMLID_1062_" class="st3" x1="427.4" y1="232.1" x2="427.6" y2="229.2"/>
	<line id="XMLID_1061_" class="st3" x1="427.2" y1="226" x2="428.9" y2="224.2"/>
	<line id="XMLID_1060_" class="st3" x1="437.6" y1="233.4" x2="435.7" y2="230.8"/>
	<line id="XMLID_1059_" class="st3" x1="443.8" y1="206" x2="442" y2="207.2"/>
	<line id="XMLID_1058_" class="st3" x1="464.4" y1="209.8" x2="462.4" y2="208.7"/>
	<line id="XMLID_1057_" class="st3" x1="441.6" y1="214.4" x2="438.8" y2="213.9"/>
	<line id="XMLID_1056_" class="st3" x1="445.1" y1="221.4" x2="443.6" y2="222.5"/>
	<line id="XMLID_1055_" class="st3" x1="443.3" y1="230.3" x2="441.2" y2="228.6"/>
	<line id="XMLID_1054_" class="st3" x1="445.7" y1="233.4" x2="444.2" y2="232.5"/>
	<line id="XMLID_1053_" class="st3" x1="443.6" y1="225.3" x2="441.4" y2="225.3"/>
	<line id="XMLID_1052_" class="st3" x1="451.2" y1="199" x2="449.3" y2="200.2"/>
	<line id="XMLID_1051_" class="st3" x1="453.2" y1="202.8" x2="451" y2="202.8"/>
	<line id="XMLID_1050_" class="st3" x1="450.8" y1="208.3" x2="448.8" y2="207.1"/>
	<line id="XMLID_1049_" class="st3" x1="450.3" y1="216.3" x2="449.7" y2="218.1"/>
	<line id="XMLID_1048_" class="st3" x1="450.6" y1="223.3" x2="448.6" y2="221.6"/>
	<line id="XMLID_1047_" class="st3" x1="451" y1="229.2" x2="449.5" y2="228.2"/>
	<line id="XMLID_1046_" class="st3" x1="468.3" y1="217.8" x2="466.1" y2="217.8"/>
	<line id="XMLID_1045_" class="st3" x1="438.3" y1="216.6" x2="440.1" y2="217.9"/>
	<line id="XMLID_1044_" class="st3" x1="441.8" y1="200.1" x2="444" y2="200.1"/>
	<line id="XMLID_1043_" class="st3" x1="432.8" y1="210.6" x2="434.6" y2="211.8"/>
	<line id="XMLID_1042_" class="st3" x1="430.7" y1="214.4" x2="432.9" y2="214.4"/>
	<line id="XMLID_1041_" class="st3" x1="433.1" y1="220" x2="435.2" y2="218.7"/>
	<line id="XMLID_1040_" class="st3" x1="456.7" y1="209.3" x2="458.5" y2="208.1"/>
	<line id="XMLID_1039_" class="st3" x1="457" y1="203.7" x2="458.7" y2="205.1"/>
	<line id="XMLID_1038_" class="st3" x1="462.2" y1="200.8" x2="462" y2="203"/>
	<line id="XMLID_1037_" class="st3" x1="455.3" y1="233.3" x2="457.5" y2="233.3"/>
	<line id="XMLID_1036_" class="st3" x1="456" y1="229" x2="457.8" y2="230.3"/>
	<line id="XMLID_1035_" class="st3" x1="461.3" y1="226" x2="462.1" y2="228.3"/>
	<line id="XMLID_1034_" class="st3" x1="457.4" y1="217" x2="455.6" y2="218.3"/>
	<line id="XMLID_1033_" class="st3" x1="457.3" y1="222.5" x2="454.9" y2="221.8"/>
	<line id="XMLID_1032_" class="st3" x1="463.9" y1="233.9" x2="461.9" y2="232.7"/>
	<line id="XMLID_1031_" class="st3" x1="469.4" y1="215.2" x2="467.4" y2="213.9"/>
	<line id="XMLID_1030_" class="st3" x1="467.8" y1="223.3" x2="466.3" y2="224.4"/>
	<line id="XMLID_1029_" class="st3" x1="436.3" y1="206.7" x2="438.6" y2="206.8"/>
	<line id="XMLID_1028_" class="st3" x1="437.1" y1="202.4" x2="438.8" y2="203.8"/>
	<line id="XMLID_1027_" class="st3" x1="464.4" y1="206" x2="466.4" y2="206.4"/>
	<line id="XMLID_1026_" class="st3" x1="432.9" y1="226" x2="433.3" y2="228.4"/>
	<line id="XMLID_1025_" class="st3" x1="434.4" y1="224.6" x2="437" y2="224"/>
	<line id="XMLID_1024_" class="st3" x1="446" y1="194.4" x2="449" y2="194.9"/>
	<line id="XMLID_1023_" class="st3" x1="446.6" y1="209.7" x2="446.9" y2="212.2"/>
	<line id="XMLID_1022_" class="st3" x1="469.4" y1="201.9" x2="467.6" y2="201"/>
	<line id="XMLID_1021_" class="st3" x1="429.3" y1="194.9" x2="431.7" y2="196.9"/>
	<line id="XMLID_1020_" class="st3" x1="425.4" y1="206.7" x2="423.6" y2="208"/>
	<line id="XMLID_1019_" class="st3" x1="433.5" y1="202.6" x2="432" y2="203.7"/>
	<line id="XMLID_1018_" class="st3" x1="452.3" y1="188.5" x2="453.7" y2="186.5"/>
	<line id="XMLID_1017_" class="st3" x1="469.4" y1="210.8" x2="470.8" y2="208.8"/>
	<line id="XMLID_1016_" class="st3" x1="446.8" y1="204.3" x2="447.3" y2="202.3"/>
	<line id="XMLID_1015_" class="st3" x1="436.8" y1="228.3" x2="437.4" y2="226.2"/>
	<line id="XMLID_1014_" class="st3" x1="445.3" y1="216.5" x2="443.8" y2="217.6"/>
	<line id="XMLID_1013_" class="st3" x1="422.8" y1="190.1" x2="420.4" y2="190.7"/>
	<line id="XMLID_1012_" class="st3" x1="421.9" y1="198.8" x2="420.1" y2="200.1"/>
	<line id="XMLID_1011_" class="st3" x1="423.9" y1="202.6" x2="421.7" y2="202.6"/>
	<line id="XMLID_1010_" class="st3" x1="423.2" y1="214.2" x2="421.7" y2="215.3"/>
	<line id="XMLID_1009_" class="st3" x1="422.8" y1="231.2" x2="419.7" y2="230.6"/>
	<line id="XMLID_1008_" class="st3" x1="421.7" y1="218.1" x2="419.5" y2="218.1"/>
	<line id="XMLID_1007_" class="st3" x1="472" y1="185.6" x2="472.8" y2="183.4"/>
	<line id="XMLID_1006_" class="st3" x1="468.4" y1="185.7" x2="467.9" y2="183.3"/>
	<line id="XMLID_1005_" class="st3" x1="457.2" y1="186.3" x2="457.3" y2="184.1"/>
	<line id="XMLID_1004_" class="st3" x1="445.6" y1="185.1" x2="444.6" y2="183.6"/>
	<line id="XMLID_1003_" class="st3" x1="433.6" y1="185.2" x2="434.6" y2="183.8"/>
	<line id="XMLID_1002_" class="st3" x1="425.5" y1="186.2" x2="424.3" y2="184.5"/>
	<line id="XMLID_1001_" class="st3" x1="425.8" y1="223.3" x2="423" y2="222.7"/>
	<line id="XMLID_1000_" class="st3" x1="472.3" y1="227.2" x2="470.9" y2="225.1"/>
	<line id="XMLID_999_" class="st3" x1="439.6" y1="211.5" x2="440.1" y2="209.4"/>
	<line id="XMLID_998_" class="st3" x1="454.9" y1="212.2" x2="453.4" y2="213.3"/>
	<line id="XMLID_997_" class="st3" x1="462.8" y1="186.4" x2="464.2" y2="184.2"/>
	<line id="XMLID_996_" class="st3" x1="462.8" y1="239.5" x2="464.2" y2="237.3"/>
</g>
<g>
	<g id="XMLID_329_">
		<line id="XMLID_222_" class="st4" x1="-183.7" y1="555.2" x2="-189.9" y2="547.1"/>
		<line id="XMLID_226_" class="st4" x1="-57.5" y1="794.2" x2="-51.3" y2="784.3"/>
		<line id="XMLID_228_" class="st4" x1="-129.5" y1="793.3" x2="-121.5" y2="783.5"/>
		<line id="XMLID_229_" class="st4" x1="-168.6" y1="800.4" x2="-165.9" y2="785.2"/>
		<line id="XMLID_230_" class="st4" x1="-162.4" y1="765.7" x2="-168.6" y2="757.7"/>
		<line id="XMLID_231_" class="st4" x1="-105.5" y1="795" x2="-105.5" y2="784.3"/>
		<line id="XMLID_237_" class="st4" x1="-116.2" y1="742.6" x2="-106.1" y2="735.9"/>
		<line id="XMLID_240_" class="st4" x1="-195.4" y1="684.1" x2="-185.9" y2="690.7"/>
		<line id="XMLID_241_" class="st4" x1="-188.1" y1="674.3" x2="-180.8" y2="669.3"/>
		<line id="XMLID_242_" class="st4" x1="-90.5" y1="718.8" x2="-81.1" y2="727.2"/>
		<line id="XMLID_244_" class="st4" x1="-197.4" y1="572.9" x2="-182.5" y2="576.1"/>
		<line id="XMLID_246_" class="st4" x1="-194.5" y1="636.1" x2="-183.9" y2="636.5"/>
		<line id="XMLID_249_" class="st4" x1="-101" y1="568.5" x2="-114.4" y2="573.8"/>
		<line id="XMLID_250_" class="st4" x1="-81.5" y1="558.7" x2="-68.2" y2="566.7"/>
		<line id="XMLID_261_" class="st4" x1="-33.3" y1="570.1" x2="-26.2" y2="579.9"/>
		<line id="XMLID_262_" class="st4" x1="-173" y1="566.7" x2="-158.8" y2="567.6"/>
		<line id="XMLID_263_" class="st4" x1="-143.7" y1="565.8" x2="-134.9" y2="573.8"/>
		<line id="XMLID_264_" class="st4" x1="-179.2" y1="615.6" x2="-166.8" y2="606.7"/>
		<line id="XMLID_265_" class="st4" x1="-46.9" y1="645.8" x2="-53.1" y2="636.9"/>
		<line id="XMLID_266_" class="st4" x1="-65.5" y1="745.3" x2="-60.2" y2="735.5"/>
		<line id="XMLID_267_" class="st4" x1="-87.7" y1="635.1" x2="-85.1" y2="621.8"/>
		<line id="XMLID_268_" class="st4" x1="-121.5" y1="652" x2="-126.8" y2="644.9"/>
		<line id="XMLID_269_" class="st4" x1="-164.1" y1="643.1" x2="-156.2" y2="633.3"/>
		<line id="XMLID_270_" class="st4" x1="-179.2" y1="654.7" x2="-174.8" y2="647.6"/>
		<line id="XMLID_271_" class="st4" x1="-140.1" y1="644.9" x2="-140.1" y2="634.2"/>
		<line id="XMLID_273_" class="st4" x1="-31.8" y1="691.1" x2="-31.8" y2="680.4"/>
		<line id="XMLID_274_" class="st4" x1="-58.4" y1="679.5" x2="-52.2" y2="669.8"/>
		<line id="XMLID_275_" class="st4" x1="-96.6" y1="676.9" x2="-105.5" y2="674.2"/>
		<line id="XMLID_276_" class="st4" x1="-130.4" y1="678.6" x2="-122.4" y2="668.9"/>
		<line id="XMLID_277_" class="st4" x1="-158.8" y1="680.4" x2="-154.3" y2="673.3"/>
		<line id="XMLID_278_" class="st4" x1="-103.8" y1="763.8" x2="-103.8" y2="753.2"/>
		<line id="XMLID_279_" class="st4" x1="-98.4" y1="619.1" x2="-104.6" y2="628"/>
		<line id="XMLID_280_" class="st4" x1="-29.8" y1="633.2" x2="-29.8" y2="643.8"/>
		<line id="XMLID_281_" class="st4" x1="-69.1" y1="592.4" x2="-75.3" y2="601.4"/>
		<line id="XMLID_282_" class="st4" x1="-87.7" y1="582.7" x2="-87.7" y2="593.3"/>
		<line id="XMLID_283_" class="st4" x1="-114.4" y1="594.2" x2="-108.1" y2="604"/>
		<line id="XMLID_284_" class="st4" x1="-62.9" y1="708" x2="-57.3" y2="716.4"/>
		<line id="XMLID_285_" class="st4" x1="-36.1" y1="709.2" x2="-42.6" y2="717.6"/>
		<line id="XMLID_286_" class="st4" x1="-21.9" y1="734.5" x2="-32.7" y2="733.7"/>
		<line id="XMLID_287_" class="st4" x1="-178.6" y1="701.2" x2="-179.1" y2="712"/>
		<line id="XMLID_288_" class="st4" x1="-157.8" y1="704.7" x2="-164.3" y2="713.2"/>
		<line id="XMLID_289_" class="st4" x1="-143.7" y1="730" x2="-154.5" y2="734"/>
		<line id="XMLID_290_" class="st4" x1="-100.2" y1="711.5" x2="-106.4" y2="702.6"/>
		<line id="XMLID_291_" class="st4" x1="-126.8" y1="710.6" x2="-123.3" y2="699.1"/>
		<line id="XMLID_292_" class="st4" x1="-181.9" y1="742.6" x2="-175.7" y2="732.8"/>
		<line id="XMLID_293_" class="st4" x1="-91.3" y1="769.3" x2="-85.1" y2="759.5"/>
		<line id="XMLID_294_" class="st4" x1="-130.4" y1="761.3" x2="-135.7" y2="754.2"/>
		<line id="XMLID_295_" class="st4" x1="-50.7" y1="609.6" x2="-51.1" y2="620.5"/>
		<line id="XMLID_296_" class="st4" x1="-29.9" y1="613.2" x2="-36.3" y2="621.7"/>
		<line id="XMLID_297_" class="st4" x1="-46.9" y1="745.3" x2="-48.8" y2="754.9"/>
		<line id="XMLID_298_" class="st4" x1="-143.7" y1="593.3" x2="-155.3" y2="595.2"/>
		<line id="XMLID_299_" class="st4" x1="-136.6" y1="600.4" x2="-133.9" y2="612.9"/>
		<line id="XMLID_301_" class="st4" x1="-64.7" y1="659" x2="-77.1" y2="660.8"/>
		<line id="XMLID_302_" class="st4" x1="-27.3" y1="769.3" x2="-22.9" y2="760.4"/>
		<line id="XMLID_304_" class="st4" x1="-50.4" y1="556.9" x2="-56.7" y2="548"/>
		<line id="XMLID_305_" class="st4" x1="-30.9" y1="596" x2="-36.2" y2="588.9"/>
		<line id="XMLID_307_" class="st4" x1="-70.2" y1="769.4" x2="-60.7" y2="776"/>
		<line id="XMLID_308_" class="st4" x1="-39" y1="660.1" x2="-29.1" y2="662.7"/>
		<line id="XMLID_309_" class="st4" x1="-154.6" y1="612.2" x2="-144.6" y2="614.7"/>
		<line id="XMLID_310_" class="st4" x1="-97.5" y1="652.9" x2="-102.9" y2="645.8"/>
		<line id="XMLID_313_" class="st4" x1="-30.9" y1="549.8" x2="-30.9" y2="539.1"/>
		<line id="XMLID_314_" class="st4" x1="-86.8" y1="546.3" x2="-92.2" y2="539.1"/>
		<line id="XMLID_323_" class="st4" x1="-130.4" y1="558.7" x2="-127.7" y2="545.4"/>
		<line id="XMLID_324_" class="st4" x1="-149.4" y1="783" x2="-139.3" y2="776.2"/>
		<line id="XMLID_325_" class="st4" x1="-73.6" y1="625.3" x2="-63.6" y2="627.7"/>
		<line id="XMLID_326_" class="st4" x1="-77.1" y1="699.1" x2="-82.4" y2="692"/>
	</g>
</g>
<g id="XMLID_334_">
	<path id="XMLID_330_" class="st5" d="M-63.9,647.5h-7.3h-86.2c-3.7,0-6.7,3-6.7,6.7v38c0,27.5,22.3,49.9,49.9,49.9
		c22.9,0,42.2-15.5,48-36.6h2.4c16,0,29.1-13,29.1-29.1C-34.8,660.5-47.8,647.5-63.9,647.5z M-77.9,692.3
		c0,20.1-16.4,36.4-36.4,36.4s-36.4-16.4-36.4-36.4V661H-78L-77.9,692.3L-77.9,692.3z M-63.9,692.1h-0.6v-31.2h0.6
		c8.6,0,15.6,7,15.6,15.6C-48.3,685.1-55.3,692.1-63.9,692.1z"/>
	<path id="XMLID_331_" class="st5" d="M-153.3,633.6h13.5c0-1.9,0.4-2.4,1.3-3.9c1.3-2.1,3.2-5.3,3.2-10.9c0-5.6-1.9-8.8-3.2-10.9
		c-1-1.6-1.3-2.1-1.3-3.9c0-1.9,0.4-2.4,1.3-3.9c1.3-2.1,3.2-5.3,3.2-10.9h-13.5c0,1.9-0.4,2.4-1.3,3.9c-1.3,2.1-3.2,5.3-3.2,10.9
		c0,5.6,1.9,8.8,3.2,11c1,1.6,1.3,2.1,1.3,3.9c0,1.9-0.4,2.4-1.3,3.9C-151.3,624.8-153.3,628-153.3,633.6z"/>
	<path id="XMLID_332_" class="st5" d="M-123.3,633.6h13.5c0-1.9,0.4-2.4,1.3-3.9c1.3-2.1,3.3-5.3,3.3-10.9c0-5.6-1.9-8.8-3.2-10.9
		c-1-1.6-1.3-2.1-1.3-3.9c0-1.9,0.4-2.4,1.3-3.9c1.3-2.1,3.2-5.3,3.2-10.9h-13.5c0,1.9-0.4,2.4-1.3,3.9c-1.3,2.1-3.2,5.3-3.2,10.9
		c0,5.6,1.9,8.8,3.2,11c1,1.6,1.3,2.1,1.3,3.9c0,1.9-0.4,2.4-1.3,3.9C-121.3,624.8-123.3,628-123.3,633.6z"/>
	<path id="XMLID_333_" class="st5" d="M-93.3,633.6h13.5c0-1.9,0.4-2.4,1.3-3.9c1.3-2.1,3.3-5.3,3.3-10.9c0-5.6-1.9-8.8-3.2-10.9
		c-1-1.6-1.3-2.1-1.3-3.9c0-1.9,0.4-2.4,1.3-3.9c1.3-2.1,3.2-5.3,3.2-10.9h-13.5c0,1.9-0.4,2.4-1.3,3.9c-1.3,2.1-3.2,5.3-3.2,10.9
		c0,5.6,1.9,8.8,3.2,11c1,1.6,1.3,2.1,1.3,3.9c0,1.9-0.4,2.4-1.3,3.9C-91.3,624.8-93.3,628-93.3,633.6z"/>
</g>
<circle class="st5" cx="-127" cy="678" r="8.7"/>
<circle class="st5" cx="-103.4" cy="678" r="8.7"/>
<path class="st6" d="M-130.4,705.9c0,0,16.1-16.1,32.3,0"/>
</svg>
