<?xml version="1.0" encoding="utf-8"?>
<!-- Generator: Adobe Illustrator 19.0.0, SVG Export Plug-In . SVG Version: 6.00 Build 0)  -->
<svg version="1.1" id="Calque_1" xmlns="http://www.w3.org/2000/svg" xmlns:xlink="http://www.w3.org/1999/xlink" x="0px" y="0px"
	 viewBox="104 -145.1 238.1 317.5" style="enable-background:new 104 -145.1 238.1 317.5;" xml:space="preserve">
<style type="text/css">
	.st0{fill:#01B295;stroke:#335FA9;stroke-width:1.0661;}
	.st1{fill:#025948;}
	.st2{fill:#F4D8C1;}
	.st3{fill:none;stroke:#335FA9;stroke-width:0.221;}
	.st4{fill:none;stroke:#335FA9;stroke-width:1.0661;}
	.st5{fill:#A73C65;}
	.st6{fill:none;stroke:#A83C65;stroke-width:7;stroke-linecap:round;stroke-miterlimit:10;}
</style>
<rect x="101.2" y="-148" class="st0" width="249.4" height="324.7"/>
<path class="st1" d="M321.7,164.3H170.1c-8.4,0-15.2-6.8-15.2-15.2V-83.5c0-8.4,6.8-15.2,15.2-15.2h151.6c8.4,0,15.2,6.8,15.2,15.2
	V149C336.9,157.5,330.1,164.3,321.7,164.3z"/>
<path class="st2" d="M300.8,144.1H149.1c-8.4,0-15.2-6.8-15.2-15.2v-232.5c0-8.4,6.8-15.2,15.2-15.2h151.6c8.4,0,15.2,6.8,15.2,15.2
	v232.5C316,137.3,309.2,144.1,300.8,144.1z"/>
<g id="XMLID_995_">
	<line id="XMLID_1103_" class="st3" x1="530.1" y1="47.7" x2="528.1" y2="49.2"/>
	<line id="XMLID_1102_" class="st3" x1="529" y1="89.2" x2="527.4" y2="90.5"/>
	<line id="XMLID_1101_" class="st3" x1="579.9" y1="45" x2="577.5" y2="45.5"/>
	<line id="XMLID_1100_" class="st3" x1="578.9" y1="53.7" x2="577.1" y2="55"/>
	<line id="XMLID_1099_" class="st3" x1="581" y1="57.5" x2="578.8" y2="57.5"/>
	<line id="XMLID_1098_" class="st3" x1="578.6" y1="63" x2="576.5" y2="61.7"/>
	<line id="XMLID_1097_" class="st3" x1="580.2" y1="69" x2="578.8" y2="70.2"/>
	<line id="XMLID_1096_" class="st3" x1="578.4" y1="78" x2="576.4" y2="76.2"/>
	<line id="XMLID_1095_" class="st3" x1="579.9" y1="86" x2="576.7" y2="85.5"/>
	<line id="XMLID_1094_" class="st3" x1="572.7" y1="84.7" x2="571" y2="86"/>
	<line id="XMLID_1093_" class="st3" x1="578.8" y1="73" x2="576.5" y2="73"/>
	<line id="XMLID_1092_" class="st3" x1="568.6" y1="52.7" x2="567.2" y2="50.7"/>
	<line id="XMLID_1091_" class="st3" x1="546.5" y1="51.5" x2="545.3" y2="49.7"/>
	<line id="XMLID_1090_" class="st3" x1="557.6" y1="48.3" x2="559" y2="46.3"/>
	<line id="XMLID_1089_" class="st3" x1="576" y1="93.5" x2="576.8" y2="91.2"/>
	<line id="XMLID_1088_" class="st3" x1="572.4" y1="93.5" x2="571.9" y2="91.2"/>
	<line id="XMLID_1087_" class="st3" x1="567.9" y1="75.2" x2="566.5" y2="73"/>
	<line id="XMLID_1086_" class="st3" x1="561.7" y1="54.2" x2="560.5" y2="52.3"/>
	<line id="XMLID_1085_" class="st3" x1="561.2" y1="94.2" x2="561.3" y2="92"/>
	<line id="XMLID_1084_" class="st3" x1="555.8" y1="91.7" x2="557.1" y2="89.7"/>
	<line id="XMLID_1083_" class="st3" x1="549.6" y1="93" x2="548.6" y2="91.5"/>
	<line id="XMLID_1082_" class="st3" x1="563" y1="69.8" x2="564.7" y2="67.8"/>
	<line id="XMLID_1081_" class="st3" x1="537.6" y1="93.2" x2="538.6" y2="91.7"/>
	<line id="XMLID_1080_" class="st3" x1="532.7" y1="92" x2="533.4" y2="89"/>
	<line id="XMLID_1079_" class="st3" x1="529.5" y1="94.2" x2="528.3" y2="92.5"/>
	<line id="XMLID_1078_" class="st3" x1="545.8" y1="91.5" x2="545.9" y2="89.2"/>
	<line id="XMLID_1077_" class="st3" x1="531.2" y1="43.7" x2="533.8" y2="44.7"/>
	<line id="XMLID_1076_" class="st3" x1="529.2" y1="55" x2="529.4" y2="52.7"/>
	<line id="XMLID_1075_" class="st3" x1="531.8" y1="72" x2="532.9" y2="74.8"/>
	<line id="XMLID_1074_" class="st3" x1="529.8" y1="68" x2="531.4" y2="65.2"/>
	<line id="XMLID_1073_" class="st3" x1="547.4" y1="43.2" x2="545.8" y2="45"/>
	<line id="XMLID_1072_" class="st3" x1="550.6" y1="43.2" x2="553" y2="45.2"/>
	<line id="XMLID_1071_" class="st3" x1="562.9" y1="43.2" x2="565.3" y2="44.5"/>
	<line id="XMLID_1070_" class="st3" x1="564.6" y1="47.5" x2="563.1" y2="50"/>
	<line id="XMLID_1069_" class="st3" x1="569.7" y1="46.7" x2="573.4" y2="45"/>
	<line id="XMLID_1068_" class="st3" x1="575.3" y1="49.2" x2="573.4" y2="50.5"/>
	<line id="XMLID_1067_" class="st3" x1="539.7" y1="43.3" x2="539.7" y2="45.5"/>
	<line id="XMLID_1066_" class="st3" x1="537.5" y1="47" x2="535.1" y2="47.3"/>
	<line id="XMLID_1065_" class="st3" x1="540.6" y1="50.3" x2="541" y2="52.7"/>
	<line id="XMLID_1064_" class="st3" x1="541.4" y1="47" x2="543.9" y2="46.5"/>
	<line id="XMLID_1063_" class="st3" x1="532.7" y1="55.7" x2="534.7" y2="54.2"/>
	<line id="XMLID_1062_" class="st3" x1="531.4" y1="87" x2="531.6" y2="84"/>
	<line id="XMLID_1061_" class="st3" x1="531.2" y1="80.8" x2="532.9" y2="79"/>
	<line id="XMLID_1060_" class="st3" x1="541.6" y1="88.2" x2="539.7" y2="85.7"/>
	<line id="XMLID_1059_" class="st3" x1="547.8" y1="60.8" x2="546" y2="62"/>
	<line id="XMLID_1058_" class="st3" x1="568.4" y1="64.7" x2="566.4" y2="63.5"/>
	<line id="XMLID_1057_" class="st3" x1="545.6" y1="69.2" x2="542.8" y2="68.7"/>
	<line id="XMLID_1056_" class="st3" x1="549.1" y1="76.2" x2="547.6" y2="77.3"/>
	<line id="XMLID_1055_" class="st3" x1="547.3" y1="85.2" x2="545.2" y2="83.5"/>
	<line id="XMLID_1054_" class="st3" x1="549.7" y1="88.2" x2="548.2" y2="87.3"/>
	<line id="XMLID_1053_" class="st3" x1="547.6" y1="80.2" x2="545.4" y2="80.2"/>
	<line id="XMLID_1052_" class="st3" x1="555.2" y1="53.8" x2="553.3" y2="55"/>
	<line id="XMLID_1051_" class="st3" x1="557.2" y1="57.7" x2="555" y2="57.7"/>
	<line id="XMLID_1050_" class="st3" x1="554.8" y1="63.2" x2="552.8" y2="62"/>
	<line id="XMLID_1049_" class="st3" x1="554.3" y1="71.2" x2="553.7" y2="73"/>
	<line id="XMLID_1048_" class="st3" x1="554.6" y1="78.2" x2="552.6" y2="76.5"/>
	<line id="XMLID_1047_" class="st3" x1="555" y1="84" x2="553.5" y2="83"/>
	<line id="XMLID_1046_" class="st3" x1="572.3" y1="72.7" x2="570.1" y2="72.7"/>
	<line id="XMLID_1045_" class="st3" x1="542.3" y1="71.5" x2="544.1" y2="72.7"/>
	<line id="XMLID_1044_" class="st3" x1="545.8" y1="55" x2="548" y2="55"/>
	<line id="XMLID_1043_" class="st3" x1="536.8" y1="65.5" x2="538.6" y2="66.7"/>
	<line id="XMLID_1042_" class="st3" x1="534.7" y1="69.2" x2="536.9" y2="69.2"/>
	<line id="XMLID_1041_" class="st3" x1="537.1" y1="74.8" x2="539.2" y2="73.5"/>
	<line id="XMLID_1040_" class="st3" x1="560.7" y1="64.2" x2="562.5" y2="63"/>
	<line id="XMLID_1039_" class="st3" x1="561" y1="58.5" x2="562.7" y2="60"/>
	<line id="XMLID_1038_" class="st3" x1="566.2" y1="55.7" x2="566" y2="57.8"/>
	<line id="XMLID_1037_" class="st3" x1="559.3" y1="88.2" x2="561.5" y2="88.2"/>
	<line id="XMLID_1036_" class="st3" x1="560" y1="83.8" x2="561.8" y2="85.2"/>
	<line id="XMLID_1035_" class="st3" x1="565.3" y1="80.8" x2="566.1" y2="83.2"/>
	<line id="XMLID_1034_" class="st3" x1="561.4" y1="71.8" x2="559.6" y2="73.2"/>
	<line id="XMLID_1033_" class="st3" x1="561.3" y1="77.3" x2="558.9" y2="76.7"/>
	<line id="XMLID_1032_" class="st3" x1="567.9" y1="88.7" x2="565.9" y2="87.5"/>
	<line id="XMLID_1031_" class="st3" x1="573.4" y1="70" x2="571.4" y2="68.7"/>
	<line id="XMLID_1030_" class="st3" x1="571.8" y1="78.2" x2="570.3" y2="79.2"/>
	<line id="XMLID_1029_" class="st3" x1="540.3" y1="61.5" x2="542.6" y2="61.7"/>
	<line id="XMLID_1028_" class="st3" x1="541.1" y1="57.2" x2="542.8" y2="58.7"/>
	<line id="XMLID_1027_" class="st3" x1="568.4" y1="60.8" x2="570.4" y2="61.2"/>
	<line id="XMLID_1026_" class="st3" x1="536.9" y1="80.8" x2="537.3" y2="83.2"/>
	<line id="XMLID_1025_" class="st3" x1="538.4" y1="79.5" x2="541" y2="78.8"/>
	<line id="XMLID_1024_" class="st3" x1="550" y1="49.2" x2="553" y2="49.7"/>
	<line id="XMLID_1023_" class="st3" x1="550.6" y1="64.5" x2="550.9" y2="67"/>
	<line id="XMLID_1022_" class="st3" x1="573.4" y1="56.7" x2="571.6" y2="55.8"/>
	<line id="XMLID_1021_" class="st3" x1="533.3" y1="49.7" x2="535.7" y2="51.7"/>
	<line id="XMLID_1020_" class="st3" x1="529.4" y1="61.5" x2="527.6" y2="62.8"/>
	<line id="XMLID_1019_" class="st3" x1="537.5" y1="57.5" x2="536" y2="58.5"/>
	<line id="XMLID_1018_" class="st3" x1="556.3" y1="43.3" x2="557.7" y2="41.3"/>
	<line id="XMLID_1017_" class="st3" x1="573.4" y1="65.7" x2="574.8" y2="63.7"/>
	<line id="XMLID_1016_" class="st3" x1="550.8" y1="59.2" x2="551.3" y2="57.2"/>
	<line id="XMLID_1015_" class="st3" x1="540.8" y1="83.2" x2="541.4" y2="81"/>
	<line id="XMLID_1014_" class="st3" x1="549.3" y1="71.3" x2="547.8" y2="72.5"/>
	<line id="XMLID_1013_" class="st3" x1="526.8" y1="45" x2="524.4" y2="45.5"/>
	<line id="XMLID_1012_" class="st3" x1="525.9" y1="53.7" x2="524.1" y2="55"/>
	<line id="XMLID_1011_" class="st3" x1="527.9" y1="57.5" x2="525.7" y2="57.5"/>
	<line id="XMLID_1010_" class="st3" x1="527.2" y1="69" x2="525.7" y2="70.2"/>
	<line id="XMLID_1009_" class="st3" x1="526.8" y1="86" x2="523.7" y2="85.5"/>
	<line id="XMLID_1008_" class="st3" x1="525.7" y1="73" x2="523.5" y2="73"/>
	<line id="XMLID_1007_" class="st3" x1="576" y1="40.5" x2="576.8" y2="38.2"/>
	<line id="XMLID_1006_" class="st3" x1="572.4" y1="40.5" x2="571.9" y2="38.2"/>
	<line id="XMLID_1005_" class="st3" x1="561.2" y1="41.2" x2="561.3" y2="39"/>
	<line id="XMLID_1004_" class="st3" x1="549.6" y1="40" x2="548.6" y2="38.5"/>
	<line id="XMLID_1003_" class="st3" x1="537.6" y1="40" x2="538.6" y2="38.7"/>
	<line id="XMLID_1002_" class="st3" x1="529.5" y1="41" x2="528.3" y2="39.3"/>
	<line id="XMLID_1001_" class="st3" x1="529.8" y1="78.2" x2="527" y2="77.5"/>
	<line id="XMLID_1000_" class="st3" x1="576.3" y1="82" x2="574.9" y2="80"/>
	<line id="XMLID_999_" class="st3" x1="543.6" y1="66.3" x2="544.1" y2="64.2"/>
	<line id="XMLID_998_" class="st3" x1="558.9" y1="67" x2="557.4" y2="68.2"/>
	<line id="XMLID_997_" class="st3" x1="566.8" y1="41.2" x2="568.2" y2="39"/>
	<line id="XMLID_996_" class="st3" x1="566.8" y1="94.3" x2="568.2" y2="92.2"/>
</g>
<g>
	<g id="XMLID_329_">
		<line id="XMLID_222_" class="st4" x1="149.2" y1="-99.4" x2="143" y2="-107.5"/>
		<line id="XMLID_226_" class="st4" x1="275.4" y1="139.6" x2="281.6" y2="129.7"/>
		<line id="XMLID_228_" class="st4" x1="203.4" y1="138.7" x2="211.4" y2="128.9"/>
		<line id="XMLID_229_" class="st4" x1="164.3" y1="145.8" x2="167" y2="130.6"/>
		<line id="XMLID_230_" class="st4" x1="170.5" y1="111.1" x2="164.3" y2="103.1"/>
		<line id="XMLID_231_" class="st4" x1="227.4" y1="140.4" x2="227.4" y2="129.7"/>
		<line id="XMLID_237_" class="st4" x1="216.7" y1="88" x2="226.8" y2="81.3"/>
		<line id="XMLID_240_" class="st4" x1="137.5" y1="29.5" x2="147" y2="36.1"/>
		<line id="XMLID_241_" class="st4" x1="144.8" y1="19.7" x2="152.1" y2="14.7"/>
		<line id="XMLID_242_" class="st4" x1="242.4" y1="64.2" x2="251.8" y2="72.6"/>
		<line id="XMLID_244_" class="st4" x1="135.5" y1="-81.7" x2="150.4" y2="-78.5"/>
		<line id="XMLID_246_" class="st4" x1="138.4" y1="-18.5" x2="149" y2="-18.1"/>
		<line id="XMLID_249_" class="st4" x1="231.9" y1="-86.1" x2="218.5" y2="-80.8"/>
		<line id="XMLID_250_" class="st4" x1="251.4" y1="-95.9" x2="264.7" y2="-87.9"/>
		<line id="XMLID_261_" class="st4" x1="299.6" y1="-84.5" x2="306.7" y2="-74.7"/>
		<line id="XMLID_262_" class="st4" x1="159.9" y1="-87.9" x2="174.1" y2="-87"/>
		<line id="XMLID_263_" class="st4" x1="189.2" y1="-88.8" x2="198" y2="-80.8"/>
		<line id="XMLID_264_" class="st4" x1="153.7" y1="-39" x2="166.1" y2="-47.9"/>
		<line id="XMLID_265_" class="st4" x1="286" y1="-8.8" x2="279.8" y2="-17.7"/>
		<line id="XMLID_266_" class="st4" x1="267.4" y1="90.7" x2="272.7" y2="80.9"/>
		<line id="XMLID_267_" class="st4" x1="245.2" y1="-19.5" x2="247.8" y2="-32.8"/>
		<line id="XMLID_268_" class="st4" x1="211.4" y1="-2.6" x2="206.1" y2="-9.7"/>
		<line id="XMLID_269_" class="st4" x1="168.8" y1="-11.5" x2="176.7" y2="-21.3"/>
		<line id="XMLID_270_" class="st4" x1="153.7" y1="0.1" x2="158.1" y2="-7"/>
		<line id="XMLID_271_" class="st4" x1="192.8" y1="-9.7" x2="192.8" y2="-20.4"/>
		<line id="XMLID_273_" class="st4" x1="301.1" y1="36.5" x2="301.1" y2="25.8"/>
		<line id="XMLID_274_" class="st4" x1="274.5" y1="24.9" x2="280.7" y2="15.2"/>
		<line id="XMLID_275_" class="st4" x1="236.3" y1="22.3" x2="227.4" y2="19.6"/>
		<line id="XMLID_276_" class="st4" x1="202.5" y1="24" x2="210.5" y2="14.3"/>
		<line id="XMLID_277_" class="st4" x1="174.1" y1="25.8" x2="178.6" y2="18.7"/>
		<line id="XMLID_278_" class="st4" x1="229.1" y1="109.2" x2="229.1" y2="98.6"/>
		<line id="XMLID_279_" class="st4" x1="234.5" y1="-35.5" x2="228.3" y2="-26.6"/>
		<line id="XMLID_280_" class="st4" x1="303.1" y1="-21.4" x2="303.1" y2="-10.8"/>
		<line id="XMLID_281_" class="st4" x1="263.8" y1="-62.2" x2="257.6" y2="-53.2"/>
		<line id="XMLID_282_" class="st4" x1="245.2" y1="-71.9" x2="245.2" y2="-61.3"/>
		<line id="XMLID_283_" class="st4" x1="218.5" y1="-60.4" x2="224.8" y2="-50.6"/>
		<line id="XMLID_284_" class="st4" x1="270" y1="53.4" x2="275.6" y2="61.8"/>
		<line id="XMLID_285_" class="st4" x1="296.8" y1="54.6" x2="290.3" y2="63"/>
		<line id="XMLID_286_" class="st4" x1="311" y1="79.9" x2="300.2" y2="79.1"/>
		<line id="XMLID_287_" class="st4" x1="154.3" y1="46.6" x2="153.8" y2="57.4"/>
		<line id="XMLID_288_" class="st4" x1="175.1" y1="50.1" x2="168.6" y2="58.6"/>
		<line id="XMLID_289_" class="st4" x1="189.2" y1="75.4" x2="178.4" y2="79.4"/>
		<line id="XMLID_290_" class="st4" x1="232.7" y1="56.9" x2="226.5" y2="48"/>
		<line id="XMLID_291_" class="st4" x1="206.1" y1="56" x2="209.6" y2="44.5"/>
		<line id="XMLID_292_" class="st4" x1="151" y1="88" x2="157.2" y2="78.2"/>
		<line id="XMLID_293_" class="st4" x1="241.6" y1="114.7" x2="247.8" y2="104.9"/>
		<line id="XMLID_294_" class="st4" x1="202.5" y1="106.7" x2="197.2" y2="99.6"/>
		<line id="XMLID_295_" class="st4" x1="282.2" y1="-45" x2="281.8" y2="-34.1"/>
		<line id="XMLID_296_" class="st4" x1="303" y1="-41.4" x2="296.6" y2="-32.9"/>
		<line id="XMLID_297_" class="st4" x1="286" y1="90.7" x2="284.1" y2="100.3"/>
		<line id="XMLID_298_" class="st4" x1="189.2" y1="-61.3" x2="177.6" y2="-59.4"/>
		<line id="XMLID_299_" class="st4" x1="196.3" y1="-54.2" x2="199" y2="-41.7"/>
		<line id="XMLID_301_" class="st4" x1="268.2" y1="4.4" x2="255.8" y2="6.2"/>
		<line id="XMLID_302_" class="st4" x1="305.6" y1="114.7" x2="310" y2="105.8"/>
		<line id="XMLID_304_" class="st4" x1="282.5" y1="-97.7" x2="276.2" y2="-106.6"/>
		<line id="XMLID_305_" class="st4" x1="302" y1="-58.6" x2="296.7" y2="-65.7"/>
		<line id="XMLID_307_" class="st4" x1="262.7" y1="114.8" x2="272.2" y2="121.4"/>
		<line id="XMLID_308_" class="st4" x1="293.9" y1="5.5" x2="303.8" y2="8.1"/>
		<line id="XMLID_309_" class="st4" x1="178.3" y1="-42.4" x2="188.3" y2="-39.9"/>
		<line id="XMLID_310_" class="st4" x1="235.4" y1="-1.7" x2="230" y2="-8.8"/>
		<line id="XMLID_313_" class="st4" x1="302" y1="-104.8" x2="302" y2="-115.5"/>
		<line id="XMLID_314_" class="st4" x1="246.1" y1="-108.3" x2="240.7" y2="-115.5"/>
		<line id="XMLID_323_" class="st4" x1="202.5" y1="-95.9" x2="205.2" y2="-109.2"/>
		<line id="XMLID_324_" class="st4" x1="183.5" y1="128.4" x2="193.6" y2="121.6"/>
		<line id="XMLID_325_" class="st4" x1="259.3" y1="-29.3" x2="269.3" y2="-26.9"/>
		<line id="XMLID_326_" class="st4" x1="255.8" y1="44.5" x2="250.5" y2="37.4"/>
	</g>
</g>
<g id="XMLID_334_">
	<path id="XMLID_330_" class="st5" d="M269-7.1h-7.3h-86.2c-3.7,0-6.7,3-6.7,6.7v38c0,27.5,22.3,49.9,49.9,49.9
		c22.9,0,42.2-15.5,48-36.6h2.4c16,0,29.1-13,29.1-29.1C298.1,5.9,285.1-7.1,269-7.1z M255,37.7c0,20.1-16.4,36.4-36.4,36.4
		s-36.4-16.4-36.4-36.4V6.4h72.7L255,37.7L255,37.7z M269,37.5h-0.6V6.3h0.6c8.6,0,15.6,7,15.6,15.6C284.6,30.5,277.6,37.5,269,37.5
		z"/>
	<path id="XMLID_331_" class="st5" d="M179.6-21h13.5c0-1.9,0.4-2.4,1.3-3.9c1.3-2.1,3.2-5.3,3.2-10.9c0-5.6-1.9-8.8-3.2-10.9
		c-1-1.6-1.3-2.1-1.3-3.9c0-1.9,0.4-2.4,1.3-3.9c1.3-2.1,3.2-5.3,3.2-10.9h-13.5c0,1.9-0.4,2.4-1.3,3.9c-1.3,2.1-3.2,5.3-3.2,10.9
		c0,5.6,1.9,8.8,3.2,11c1,1.6,1.3,2.1,1.3,3.9c0,1.9-0.4,2.4-1.3,3.9C181.6-29.8,179.6-26.6,179.6-21z"/>
	<path id="XMLID_332_" class="st5" d="M209.6-21h13.5c0-1.9,0.4-2.4,1.3-3.9c1.3-2.1,3.3-5.3,3.3-10.9c0-5.6-1.9-8.8-3.2-10.9
		c-1-1.6-1.3-2.1-1.3-3.9c0-1.9,0.4-2.4,1.3-3.9c1.3-2.1,3.2-5.3,3.2-10.9h-13.5c0,1.9-0.4,2.4-1.3,3.9c-1.3,2.1-3.2,5.3-3.2,10.9
		c0,5.6,1.9,8.8,3.2,11c1,1.6,1.3,2.1,1.3,3.9c0,1.9-0.4,2.4-1.3,3.9C211.6-29.8,209.6-26.6,209.6-21z"/>
	<path id="XMLID_333_" class="st5" d="M239.6-21h13.5c0-1.9,0.4-2.4,1.3-3.9c1.3-2.1,3.3-5.3,3.3-10.9c0-5.6-1.9-8.8-3.2-10.9
		c-1-1.6-1.3-2.1-1.3-3.9c0-1.9,0.4-2.4,1.3-3.9c1.3-2.1,3.2-5.3,3.2-10.9h-13.5c0,1.9-0.4,2.4-1.3,3.9c-1.3,2.1-3.2,5.3-3.2,10.9
		c0,5.6,1.9,8.8,3.2,11c1,1.6,1.3,2.1,1.3,3.9c0,1.9-0.4,2.4-1.3,3.9C241.6-29.8,239.6-26.6,239.6-21z"/>
</g>
<circle class="st5" cx="205.9" cy="23.4" r="8.7"/>
<circle class="st5" cx="229.5" cy="23.4" r="8.7"/>
<path class="st6" d="M234.8,44.2c0,0-16.1,16.1-32.3,0"/>
</svg>
